<svg width="256" height="256" viewBox="0 0 256 256" fill="none" xmlns="http://www.w3.org/2000/svg">
<g clip-path="url(#clip0_2404_5533)">
<path fill-rule="evenodd" clip-rule="evenodd" d="M53.3332 10.6666C42.0173 10.6666 31.1648 15.1619 23.1633 23.1634C15.1617 31.165 10.6665 42.0174 10.6665 53.3333V202.667C10.6665 213.983 15.1617 224.835 23.1633 232.837C31.1648 240.838 42.0173 245.333 53.3332 245.333H202.667C213.982 245.333 224.835 240.838 232.836 232.837C240.838 224.835 245.333 213.983 245.333 202.667V53.3333C245.333 42.0174 240.838 31.165 232.836 23.1634C224.835 15.1619 213.982 10.6666 202.667 10.6666H53.3332ZM127.189 40.1813C106.539 40.1813 87.4665 47.808 73.7065 63.8613C60.0532 79.808 52.4478 103.04 52.4478 132.907C52.4478 163.456 63.0398 184.64 79.1145 198.027C94.8692 211.147 114.773 215.819 132.096 215.819C167.104 215.819 195.627 194.272 197.003 163.296C197.696 147.744 190.816 134.816 179.392 126.101C176.259 123.725 172.884 121.687 169.323 120.021C169.287 119.356 169.244 118.691 169.195 118.027C167.968 101.76 161.013 91.52 152.235 85.6853C145.872 81.5668 138.459 79.3638 130.88 79.3386C118.677 79.3386 108.021 84.4053 99.4238 94.272C98.6191 95.1965 98.0043 96.2704 97.6146 97.4325C97.225 98.5946 97.068 99.8221 97.1527 101.045C97.2373 102.268 97.562 103.462 98.1082 104.559C98.6544 105.656 99.4113 106.635 100.336 107.44C101.26 108.245 102.334 108.859 103.496 109.249C104.658 109.639 105.886 109.796 107.109 109.711C108.331 109.626 109.526 109.302 110.623 108.756C111.72 108.209 112.699 107.452 113.504 106.528C118.837 100.405 124.491 98.0053 130.891 98.0053C133.163 98.0053 137.845 98.5386 141.909 101.237C144.864 103.2 148.288 106.805 149.856 114.219C145.422 113.544 140.943 113.209 136.459 113.216C120.565 113.216 109.397 117.259 102.464 124.683C95.5518 132.075 94.5492 141.013 94.9012 147.051C95.1325 150.998 96.1924 154.852 98.0118 158.362C99.8312 161.872 102.369 164.96 105.461 167.424C112.128 172.8 121.248 175.403 132.096 174.603C143.872 173.739 154.144 167.744 160.896 157.493C164.075 152.672 166.389 147.04 167.808 140.747L168.064 140.939C175.019 146.251 178.763 153.493 178.357 162.464C177.557 180.544 160.331 197.152 132.096 197.152C117.792 197.152 102.549 193.248 91.0505 183.68C79.8718 174.368 71.1145 158.773 71.1145 132.907C71.1145 106.059 77.9518 87.6053 87.8825 76.0106C97.6958 64.5653 111.328 58.848 127.189 58.848C144.011 58.848 157.344 62.88 166.891 69.728C176.299 76.4693 182.677 86.4 185.035 99.6586C185.469 102.096 186.853 104.261 188.884 105.677C190.914 107.093 193.424 107.645 195.861 107.211C198.298 106.776 200.463 105.392 201.879 103.361C203.296 101.331 203.847 98.8211 203.413 96.384C200.245 78.6346 191.36 64.3093 177.771 54.56C164.309 44.9066 146.88 40.1813 127.189 40.1813ZM136.459 131.883C141.408 131.883 146.016 132.363 150.219 133.248C149.344 139.2 147.552 143.829 145.312 147.221C141.696 152.704 136.64 155.552 130.72 155.989C123.616 156.512 119.445 154.731 117.163 152.896C116.103 152.062 115.231 151.013 114.606 149.818C113.981 148.623 113.616 147.309 113.536 145.963C113.344 142.72 113.995 139.68 116.107 137.429C118.197 135.189 123.424 131.883 136.459 131.883Z" fill="black"/>
</g>
<defs>
<clipPath id="clip0_2404_5533">
<rect width="256" height="256" fill="white"/>
</clipPath>
</defs>
</svg>
