<svg width="256" height="256" viewBox="0 0 256 256" fill="none" xmlns="http://www.w3.org/2000/svg">
<g clip-path="url(#clip0_2404_5524)">
<path fill-rule="evenodd" clip-rule="evenodd" d="M53.3334 10.6666C29.7693 10.6666 10.6667 29.7691 10.6667 53.3333V202.667C10.6667 226.23 29.7693 245.333 53.3334 245.333H202.667C226.23 245.333 245.333 226.23 245.333 202.667V53.3333C245.333 29.7691 226.23 10.6666 202.667 10.6666H53.3334ZM49.7677 48C47.8971 48.6962 46.3189 50.0809 45.3977 51.9285C44.0442 54.6432 44.3426 57.89 46.1682 60.3126L106.053 139.782L42.9497 207.452C42.7843 207.63 42.6286 207.812 42.4823 208H64.316L115.83 152.757L155.439 205.321C156.368 206.553 157.618 207.473 159.027 208H206.198C208.063 207.302 209.637 205.92 210.556 204.076C211.909 201.361 211.612 198.114 209.786 195.692L149.901 116.222L213.518 48H191.641L140.123 103.246L100.514 50.6835C99.5831 49.448 98.328 48.5259 96.9142 48H49.7677ZM165.818 192.507L68.6027 63.498H90.1364L187.352 192.507H165.818Z" fill="black"/>
</g>
<defs>
<clipPath id="clip0_2404_5524">
<rect width="256" height="256" fill="white"/>
</clipPath>
</defs>
</svg>
